HIERARCHY
ROOT joint_Root
{
	OFFSET 0.0 0.0 0.0
	CHANNELS 6 Xposition Yposition Zposition Zrotation Xrotation Yrotation 
	JOINT Hips
	{
		OFFSET -17.1583 93.1646 452.98
		CHANNELS 6 Xposition Yposition Zposition Zrotation Xrotation Yrotation 
		JOINT Spine
		{
			OFFSET 15.7357 0.0 0.0
			CHANNELS 6 Xposition Yposition Zposition Zrotation Xrotation Yrotation 
			JOINT Chest
			{
				OFFSET 8.98455 -0.406207 0.0
				CHANNELS 6 Xposition Yposition Zposition Zrotation Xrotation Yrotation 
				JOINT Neck
				{
					OFFSET 16.3773 0.0 0.0
					CHANNELS 6 Xposition Yposition Zposition Zrotation Xrotation Yrotation 
					JOINT Head
					{
						OFFSET 6.45672 0.0 0.0
						CHANNELS 6 Xposition Yposition Zposition Zrotation Xrotation Yrotation 
						End Site
						{
							OFFSET 0.0 0.0 0.0
						}
					}
				}
				JOINT Shoulder_L
				{
					OFFSET 12.9942 -0.242716 4.98039
					CHANNELS 6 Xposition Yposition Zposition Zrotation Xrotation Yrotation 
					JOINT UpperArm_L
					{
						OFFSET 5.34809 0.0 0.0
						CHANNELS 6 Xposition Yposition Zposition Zrotation Xrotation Yrotation 
						JOINT LowerArm_L
						{
							OFFSET 24.3286 1.87007e-05 0.0
							CHANNELS 6 Xposition Yposition Zposition Zrotation Xrotation Yrotation 
							JOINT Hand_L
							{
								OFFSET 22.2916 0.0 0.0
								CHANNELS 6 Xposition Yposition Zposition Zrotation Xrotation Yrotation 
								End Site
								{
									OFFSET 0.0 0.0 0.0
								}
							}
						}
					}
				}
				JOINT Shoulder_R
				{
					OFFSET 12.9945 -0.242716 -4.98039
					CHANNELS 6 Xposition Yposition Zposition Zrotation Xrotation Yrotation 
					JOINT UpperArm_R
					{
						OFFSET -5.34813 0.0 0.0
						CHANNELS 6 Xposition Yposition Zposition Zrotation Xrotation Yrotation 
						JOINT LowerArm_R
						{
							OFFSET -24.3289 0.000322201 0.0
							CHANNELS 6 Xposition Yposition Zposition Zrotation Xrotation Yrotation 
							JOINT Hand_R
							{
								OFFSET -22.2915 -0.000108084 0.0
								CHANNELS 6 Xposition Yposition Zposition Zrotation Xrotation Yrotation 
								End Site
								{
									OFFSET 0.0 0.0 0.0
								}
							}
						}
					}
				}
			}
		}
		JOINT UpperLeg_L
		{
			OFFSET -2.19248 -6.46944 0.0
			CHANNELS 6 Xposition Yposition Zposition Zrotation Xrotation Yrotation 
			JOINT LowerLeg_L
			{
				OFFSET 39.0811 0.0 -1.23785e-05
				CHANNELS 6 Xposition Yposition Zposition Zrotation Xrotation Yrotation 
				JOINT Foot_L
				{
					OFFSET 40.9854 0.0 -1.26872e-05
					CHANNELS 6 Xposition Yposition Zposition Zrotation Xrotation Yrotation 
					JOINT Toes_L
					{
						OFFSET 11.7543 0.0 0.0
						CHANNELS 6 Xposition Yposition Zposition Zrotation Xrotation Yrotation 
						End Site
						{
							OFFSET 0.0 0.0 0.0
						}
					}
				}
			}
		}
		JOINT UpperLeg_R
		{
			OFFSET -2.19251 6.46944 0.0
			CHANNELS 6 Xposition Yposition Zposition Zrotation Xrotation Yrotation 
			JOINT LowerLeg_R
			{
				OFFSET -39.0811 -0.00228153 -0.0401928
				CHANNELS 6 Xposition Yposition Zposition Zrotation Xrotation Yrotation 
				JOINT Foot_R
				{
					OFFSET -40.9854 0.0 0.0
					CHANNELS 6 Xposition Yposition Zposition Zrotation Xrotation Yrotation 
					JOINT Toes_R
					{
						OFFSET -11.7543 0.0 0.0
						CHANNELS 6 Xposition Yposition Zposition Zrotation Xrotation Yrotation 
						End Site
						{
							OFFSET 0.0 0.0 0.0
						}
					}
				}
			}
		}
	}
}
MOTION
Frames:	8
Frame Time:	0.0333333
0.000000 0.000000 0.000000 0.000000 0.000000 -0.000000 -3.820060 91.630500 -0.180620 86.017000 1.373710 8.762190 15.735700 0.000005 -0.000001 87.805800 86.005700 -85.390900 8.984550 -0.406207 -0.000000 0.231109 -0.464452 4.827380 16.377300 -0.000001 -0.000001 11.493000 0.552444 -12.776200 6.456720 -0.000001 -0.000000 -7.961680 1.056700 -21.786200 12.994200 -0.242716 4.980390 -93.558300 9.210610 -68.769200 5.348090 -0.000007 -0.000001 -76.483900 -9.132120 -15.635800 24.328600 0.000019 0.000005 27.019400 -32.211300 -136.268000 22.291600 -0.000001 0.000005 39.173400 5.060760 5.999270 12.994500 -0.242716 -4.980390 87.703300 6.226030 -69.704900 -5.348130 -0.000001 -0.000004 -67.536700 31.830500 -5.049170 -24.328900 0.000322 -0.000009 1.189270 4.115950 -16.145100 -22.291500 -0.000108 -0.000004 -2.289040 5.294780 0.218265 -2.192480 -6.469440 -0.000000 -175.090000 4.046220 0.893150 39.081100 -0.000007 -0.000012 0.382219 -0.702434 28.553000 40.985400 -0.000006 -0.000013 0.740530 4.984120 -76.730100 11.754300 -0.000000 0.000003 -0.000229 0.171396 -9.624870 -2.192510 6.469440 -0.000001 -172.053000 9.260930 -172.431000 -39.081100 -0.002282 -0.040193 0.184526 -0.571145 17.602400 -40.985400 0.000008 0.000006 6.207740 0.713105 -72.887400 -11.754300 -0.000006 -0.000006 -0.011392 0.281430 -5.136680
0.000000 0.000000 0.000000 0.000000 0.000000 -0.000000 -3.809540 91.645800 -0.194668 86.049100 1.354410 8.695390 15.735700 0.000005 -0.000001 88.010300 85.996800 -85.616800 8.984550 -0.406207 -0.000000 0.249218 -0.434795 4.784790 16.377300 -0.000001 -0.000001 11.530800 0.545012 -12.684900 6.456720 -0.000001 -0.000000 -7.946200 1.043950 -21.647200 12.994200 -0.242716 4.980390 -93.558300 9.230310 -68.810200 5.348090 -0.000007 -0.000001 -76.433200 -9.094800 -15.522800 24.328600 0.000019 0.000005 26.750400 -31.998700 -136.432000 22.291600 -0.000001 0.000005 39.508200 5.066390 5.873100 12.994500 -0.242716 -4.980390 87.683100 6.274890 -69.687100 -5.348130 -0.000001 -0.000004 -67.637800 32.106800 -5.055580 -24.328900 0.000322 -0.000009 1.157730 4.007610 -16.141500 -22.291500 -0.000108 -0.000004 -2.234680 5.294360 0.230121 -2.192480 -6.469440 -0.000000 -175.116000 3.994040 0.861367 39.081100 -0.000007 -0.000012 0.378124 -0.697618 28.459500 40.985400 -0.000006 -0.000013 0.743308 4.980380 -76.659900 11.754300 -0.000000 0.000003 -0.000165 0.170353 -9.667230 -2.192510 6.469440 -0.000001 -172.097000 9.295640 -172.459000 -39.081100 -0.002282 -0.040193 0.183605 -0.570879 17.526100 -40.985400 0.000008 0.000006 6.216610 0.800590 -72.872000 -11.754300 -0.000006 -0.000006 -0.011136 0.279603 -5.211450
0.000000 0.000000 0.000000 0.000000 0.000000 -0.000000 -3.791090 91.664500 -0.190855 86.076800 1.302910 8.624610 15.735700 0.000005 -0.000001 87.936800 85.989200 -85.553600 8.984550 -0.406207 -0.000000 0.264060 -0.444615 4.764220 16.377300 -0.000001 -0.000001 11.599900 0.566425 -12.656900 6.456720 -0.000001 -0.000000 -7.947110 1.087100 -21.565900 12.994200 -0.242716 4.980390 -93.602400 9.312190 -68.740600 5.348090 -0.000007 -0.000001 -76.364800 -9.361260 -15.483900 24.328600 0.000019 0.000005 26.730800 -31.855500 -136.342000 22.291600 -0.000001 0.000005 39.178100 5.067310 5.853720 12.994500 -0.242716 -4.980390 87.682900 6.284880 -69.714500 -5.348130 -0.000001 -0.000004 -67.832300 32.270600 -5.034780 -24.328900 0.000322 -0.000009 1.138760 3.949290 -16.112800 -22.291500 -0.000108 -0.000004 -2.429880 5.294020 0.239220 -2.192480 -6.469440 -0.000000 -175.127000 3.895350 0.865649 39.081100 -0.000007 -0.000012 0.371272 -0.688708 28.329300 40.985400 -0.000006 -0.000013 0.770457 5.047960 -76.591600 11.754300 -0.000000 0.000003 -0.000214 0.171157 -9.634600 -2.192510 6.469440 -0.000001 -172.108000 9.170750 -172.478000 -39.081100 -0.002282 -0.040193 0.180844 -0.565761 17.420600 -40.985400 0.000008 0.000006 6.192420 0.754535 -72.793400 -11.754300 -0.000006 -0.000006 -0.011510 0.282261 -5.102660
0.000000 0.000000 0.000000 0.000000 0.000000 -0.000000 -3.773280 91.683100 -0.202859 86.128700 1.278550 8.504630 15.735700 0.000005 -0.000001 88.164200 85.987900 -85.812600 8.984550 -0.406207 -0.000000 0.266807 -0.410774 4.700910 16.377300 -0.000001 -0.000001 11.601100 0.550510 -12.572000 6.456720 -0.000001 -0.000000 -7.903220 1.098880 -21.536300 12.994200 -0.242716 4.980390 -93.592600 9.292420 -68.752500 5.348090 -0.000007 -0.000001 -76.340600 -9.695890 -15.415400 24.328600 0.000019 0.000005 27.252600 -31.967100 -135.787000 22.291600 -0.000001 0.000005 39.040800 5.059610 6.024530 12.994500 -0.242716 -4.980390 87.662500 6.327080 -69.675000 -5.348130 -0.000001 -0.000004 -68.079100 32.301400 -4.961160 -24.328900 0.000322 -0.000009 1.162770 4.029660 -16.124200 -22.291500 -0.000108 -0.000004 -2.435990 5.294770 0.218537 -2.192480 -6.469440 -0.000000 -175.183000 3.828710 0.794625 39.081100 -0.000007 -0.000012 0.369298 -0.688424 28.211800 40.985400 -0.000006 -0.000013 0.779219 5.030150 -76.523600 11.754300 -0.000000 0.000003 -0.000373 0.173678 -9.532200 -2.192510 6.469440 -0.000001 -172.186000 9.258710 -172.559000 -39.081100 -0.002282 -0.040193 0.180486 -0.567166 17.347000 -40.985400 0.000008 0.000006 6.202810 0.895010 -72.782900 -11.754300 -0.000006 -0.000006 -0.011202 0.280078 -5.192010
0.000000 0.000000 0.000000 0.000000 0.000000 -0.000000 -3.754070 91.699200 -0.206659 86.148600 1.239920 8.396260 15.735700 0.000005 -0.000001 88.373400 85.986400 -86.026100 8.984550 -0.406207 -0.000000 0.270134 -0.381228 4.692290 16.377300 -0.000001 -0.000001 11.648100 0.530754 -12.552900 6.456720 -0.000001 -0.000000 -7.916440 1.052610 -21.527800 12.994200 -0.242716 4.980390 -93.623600 9.368820 -68.743000 5.348090 -0.000007 -0.000001 -76.100200 -10.225600 -15.278300 24.328600 0.000019 0.000005 27.023500 -31.299400 -135.527000 22.291600 -0.000001 0.000005 38.620000 5.063360 5.940200 12.994500 -0.242716 -4.980390 87.666800 6.314180 -69.671600 -5.348130 -0.000001 -0.000004 -68.308900 32.485700 -4.856410 -24.328900 0.000322 -0.000009 1.104850 3.815880 -16.175700 -22.291500 -0.000108 -0.000004 -2.430380 5.296790 0.162233 -2.192480 -6.469440 -0.000000 -175.186000 3.712040 0.731386 39.081100 -0.000007 -0.000012 0.365857 -0.685083 28.104500 40.985400 -0.000006 -0.000013 0.788665 5.041160 -76.385300 11.754300 -0.000000 0.000003 -0.000169 0.170429 -9.664140 -2.192510 6.469440 -0.000001 -172.190000 9.167500 -172.625000 -39.081100 -0.002282 -0.040193 0.177810 -0.561869 17.252100 -40.985400 0.000008 0.000006 6.184750 0.872704 -72.691600 -11.754300 -0.000006 -0.000006 -0.011180 0.279917 -5.198590
0.000000 0.000000 0.000000 0.000000 0.000000 -0.000000 -3.725310 91.733200 -0.218686 86.209300 1.208750 8.255100 15.735700 0.000005 -0.000001 88.522700 85.983000 -86.203700 8.984550 -0.406207 -0.000000 0.276694 -0.358520 4.635650 16.377300 -0.000001 -0.000001 11.608200 0.517775 -12.485600 6.456720 -0.000001 -0.000000 -7.890890 1.010430 -21.465300 12.994200 -0.242716 4.980390 -93.634900 9.406390 -68.759400 5.348090 -0.000007 -0.000001 -75.867700 -10.894700 -15.100400 24.328600 0.000019 0.000005 26.951100 -30.610900 -135.043000 22.291600 -0.000001 0.000005 37.839600 5.055790 6.109040 12.994500 -0.242716 -4.980390 87.645500 6.369870 -69.665600 -5.348130 -0.000001 -0.000004 -68.470400 32.615100 -4.803800 -24.328900 0.000322 -0.000009 1.118220 3.869140 -16.147800 -22.291500 -0.000108 -0.000004 -2.478880 5.295050 0.210448 -2.192480 -6.469440 -0.000000 -175.259000 3.659990 0.718067 39.081100 -0.000007 -0.000012 0.363654 -0.687482 27.878200 40.985400 -0.000006 -0.000013 0.818271 5.075090 -76.330000 11.754300 -0.000000 0.000003 -0.000217 0.171198 -9.632900 -2.192510 6.469440 -0.000001 -172.272000 9.194110 -172.690000 -39.081100 -0.002282 -0.040193 0.174683 -0.557500 17.085900 -40.985400 0.000008 0.000006 6.174060 0.970875 -72.642800 -11.754300 -0.000006 -0.000006 -0.011301 0.280783 -5.163140
0.000000 0.000000 0.000000 0.000000 0.000000 -0.000000 -3.693090 91.755100 -0.242598 86.257900 1.147640 8.150780 15.735700 0.000005 -0.000001 88.627600 85.960900 -86.324700 8.984550 -0.406207 -0.000000 0.321011 -0.342933 4.603630 16.377300 -0.000001 -0.000001 11.576200 0.485716 -12.348300 6.456720 -0.000001 -0.000000 -7.954170 1.034150 -21.404900 12.994200 -0.242716 4.980390 -93.659300 9.459320 -68.737000 5.348090 -0.000007 -0.000001 -75.516300 -11.455700 -14.718500 24.328600 0.000019 0.000005 27.051800 -29.805500 -134.226000 22.291600 -0.000001 0.000005 37.229500 5.050420 6.227820 12.994500 -0.242716 -4.980390 87.634000 6.406750 -69.681800 -5.348130 -0.000001 -0.000004 -68.560900 32.836000 -4.809570 -24.328900 0.000322 -0.000009 1.079180 3.752770 -16.071100 -22.291500 -0.000108 -0.000004 -2.426090 5.296400 0.173112 -2.192480 -6.469440 -0.000000 -175.325000 3.614040 0.655803 39.081100 -0.000007 -0.000012 0.359212 -0.682831 27.748000 40.985400 -0.000006 -0.000013 0.833040 5.043290 -76.203400 11.754300 -0.000000 0.000003 -0.000220 0.171256 -9.630560 -2.192510 6.469440 -0.000001 -172.312000 9.115870 -172.763000 -39.081100 -0.002282 -0.040193 0.173794 -0.557658 16.997800 -40.985400 0.000008 0.000006 6.153150 0.962238 -72.559400 -11.754300 -0.000006 -0.000006 -0.011156 0.279749 -5.205480
0.000000 0.000000 0.000000 0.000000 0.000000 -0.000000 -3.674260 91.790200 -0.279728 86.279900 1.173310 7.904650 15.735700 0.000005 -0.000001 88.594300 85.985800 -86.315700 8.984550 -0.406207 -0.000000 0.270954 -0.345834 4.554820 16.377300 -0.000001 -0.000001 11.461400 0.487075 -12.136800 6.456720 -0.000001 -0.000000 -7.916600 0.962414 -21.128100 12.994200 -0.242716 4.980390 -93.669000 9.484140 -68.736100 5.348090 -0.000007 -0.000001 -75.063400 -11.830600 -14.241500 24.328600 0.000019 0.000005 27.421200 -28.945900 -133.010000 22.291600 -0.000001 0.000005 36.627000 5.049400 6.251510 12.994500 -0.242716 -4.980390 87.612700 6.462660 -69.675600 -5.348130 -0.000001 -0.000004 -68.648900 32.792800 -4.745350 -24.328900 0.000322 -0.000009 1.097680 3.824750 -16.040900 -22.291500 -0.000108 -0.000004 -2.525750 5.296320 0.175492 -2.192480 -6.469440 -0.000000 -175.349000 3.603000 0.453068 39.081100 -0.000007 -0.000012 0.357069 -0.683559 27.581900 40.985400 -0.000006 -0.000013 0.826238 5.011650 -76.112900 11.754300 -0.000000 0.000003 -0.000346 0.173254 -9.549390 -2.192510 6.469440 -0.000001 -172.276000 8.954840 -172.942000 -39.081100 -0.002282 -0.040193 0.168755 -0.548218 16.791700 -40.985400 0.000008 0.000006 6.087810 0.838705 -72.423500 -11.754300 -0.000006 -0.000006 -0.011044 0.278946 -5.238340
